<?xml version="1.0" encoding="utf-8"?>
<!-- Generator: Adobe Illustrator 19.2.1, SVG Export Plug-In . SVG Version: 6.00 Build 0)  -->
<svg version="1.1" id="Layer_1" xmlns="http://www.w3.org/2000/svg" xmlns:xlink="http://www.w3.org/1999/xlink" x="0px" y="0px"
	 viewBox="0 0 954.664 220" style="enable-background:new 0 0 954.664 220;" xml:space="preserve">
<style type="text/css">
	.st0{fill:#FFFFFF;}
	.st1{fill:#0FFF00;}
</style>
<g>
	<path class="st0" d="M4.218,128.741l24.785-3.779c1.055,4.806,3.193,8.453,6.416,10.942c3.222,2.491,7.734,3.735,13.535,3.735
		c6.386,0,11.191-1.171,14.414-3.516c2.167-1.64,3.252-3.837,3.252-6.592c0-1.874-0.586-3.428-1.758-4.658
		c-1.23-1.171-3.985-2.255-8.262-3.252c-19.922-4.395-32.55-8.407-37.881-12.041C11.338,104.542,7.646,97.54,7.646,88.575
		c0-8.086,3.193-14.882,9.58-20.391c6.386-5.507,16.289-8.262,29.707-8.262c12.773,0,22.265,2.081,28.477,6.24
		c6.21,4.161,10.488,10.313,12.832,18.457l-23.291,4.307c-0.997-3.632-2.887-6.416-5.669-8.35c-2.784-1.934-6.754-2.9-11.909-2.9
		c-6.504,0-11.162,0.909-13.975,2.725c-1.876,1.29-2.813,2.959-2.813,5.01c0,1.758,0.82,3.252,2.461,4.482
		c2.226,1.641,9.917,3.955,23.071,6.943c13.153,2.988,22.338,6.651,27.554,10.986c5.155,4.395,7.734,10.519,7.734,18.369
		c0,8.556-3.575,15.908-10.723,22.061c-7.149,6.152-17.725,9.229-31.729,9.229c-12.715,0-22.779-2.577-30.19-7.734
		C11.351,144.592,6.504,137.59,4.218,128.741z"/>
	<path class="st0" d="M194.414,89.63l-24.346,4.395c-0.821-4.863-2.681-8.525-5.581-10.986s-6.666-3.691-11.294-3.691
		c-6.152,0-11.061,2.125-14.722,6.372c-3.663,4.249-5.493,11.353-5.493,21.313c0,11.074,1.859,18.896,5.581,23.467
		c3.72,4.57,8.715,6.855,14.985,6.855c4.687,0,8.525-1.332,11.514-3.999c2.988-2.665,5.098-7.251,6.328-13.755l24.258,4.131
		c-2.52,11.134-7.354,19.542-14.502,25.225c-7.149,5.685-16.729,8.525-28.74,8.525c-13.653,0-24.537-4.307-32.651-12.92
		c-8.116-8.613-12.173-20.536-12.173-35.771c0-15.41,4.072-27.407,12.217-35.991c8.144-8.583,19.16-12.876,33.047-12.876
		c11.367,0,20.404,2.447,27.114,7.339C186.664,72.155,191.483,79.61,194.414,89.63z"/>
	<path class="st0" d="M213.134,49.376V26.524h24.697v22.852H213.134z M213.134,155.372v-93.34h24.697v93.34H213.134z"/>
	<path class="st0" d="M262.265,155.372V26.524h24.697v68.379l28.916-32.871h30.41l-31.904,34.102l34.189,59.238h-26.631
		l-23.467-41.924l-11.514,12.041v29.883H262.265z"/>
	<path class="st0" d="M363.252,49.376V26.524h24.697v22.852H363.252z M363.252,155.372v-93.34h24.697v93.34H363.252z"/>
	<path class="st0" d="M456.064,62.032V81.72h-16.875v37.617c0,7.618,0.161,12.057,0.483,13.315c0.321,1.261,1.055,2.301,2.197,3.12
		c1.143,0.821,2.534,1.23,4.175,1.23c2.285,0,5.595-0.791,9.932-2.373l2.109,19.16c-5.743,2.461-12.247,3.691-19.512,3.691
		c-4.454,0-8.468-0.747-12.041-2.241c-3.575-1.494-6.196-3.428-7.866-5.801s-2.828-5.581-3.472-9.624
		c-0.527-2.87-0.791-8.671-0.791-17.402V81.72h-11.338V62.032h11.338V43.487l24.785-14.414v32.959H456.064z"/>
	<path class="st0" d="M470.39,121.007V96.31h48.516v24.697H470.39z"/>
	<path class="st1" d="M618.047,155.372h-24.697v-47.637c0-10.077-0.527-16.596-1.582-19.556c-1.055-2.958-2.769-5.258-5.142-6.899
		c-2.373-1.64-5.229-2.461-8.569-2.461c-4.277,0-8.116,1.173-11.514,3.516c-3.398,2.344-5.728,5.449-6.987,9.316
		c-1.261,3.867-1.89,11.017-1.89,21.445v42.275h-24.697v-93.34h22.939v13.711c8.144-10.547,18.398-15.82,30.762-15.82
		c5.449,0,10.429,0.982,14.941,2.944c4.512,1.964,7.924,4.469,10.239,7.515c2.314,3.047,3.925,6.504,4.834,10.371
		c0.908,3.867,1.362,9.404,1.362,16.611V155.372z"/>
	<path class="st1" d="M661.552,90.509l-22.412-4.043c2.519-9.022,6.855-15.702,13.008-20.039c6.152-4.335,15.293-6.504,27.422-6.504
		c11.016,0,19.218,1.305,24.609,3.911c5.391,2.608,9.185,5.919,11.382,9.932c2.197,4.014,3.296,11.382,3.296,22.104l-0.264,28.828
		c0,8.204,0.396,14.254,1.187,18.149c0.791,3.897,2.271,8.072,4.438,12.524h-24.434c-0.646-1.64-1.437-4.071-2.373-7.295
		c-0.41-1.464-0.703-2.431-0.879-2.9c-4.219,4.103-8.731,7.179-13.535,9.229c-4.805,2.051-9.932,3.076-15.381,3.076
		c-9.61,0-17.183-2.606-22.72-7.822c-5.537-5.214-8.306-11.806-8.306-19.775c0-5.273,1.26-9.976,3.779-14.106
		c2.519-4.131,6.05-7.295,10.591-9.492c4.54-2.197,11.088-4.116,19.644-5.757c11.543-2.167,19.541-4.188,23.994-6.064v-2.461
		c0-4.746-1.173-8.13-3.516-10.151c-2.344-2.021-6.768-3.032-13.271-3.032c-4.395,0-7.822,0.865-10.283,2.593
		C665.068,83.141,663.076,86.173,661.552,90.509z M694.599,110.548c-3.164,1.055-8.174,2.315-15.029,3.779
		c-6.855,1.466-11.338,2.9-13.447,4.307c-3.223,2.285-4.834,5.186-4.834,8.701c0,3.458,1.288,6.446,3.867,8.965
		c2.578,2.521,5.858,3.779,9.844,3.779c4.452,0,8.701-1.464,12.744-4.395c2.988-2.226,4.951-4.95,5.889-8.174
		c0.645-2.109,0.967-6.122,0.967-12.041V110.548z"/>
	<path class="st1" d="M828.105,155.372h-24.697v-47.637c0-10.077-0.527-16.596-1.582-19.556c-1.055-2.958-2.769-5.258-5.142-6.899
		c-2.373-1.64-5.229-2.461-8.569-2.461c-4.277,0-8.116,1.173-11.514,3.516c-3.398,2.344-5.728,5.449-6.987,9.316
		c-1.261,3.867-1.89,11.017-1.89,21.445v42.275h-24.697v-93.34h22.939v13.711c8.144-10.547,18.398-15.82,30.762-15.82
		c5.449,0,10.429,0.982,14.941,2.944c4.512,1.964,7.924,4.469,10.239,7.515c2.314,3.047,3.925,6.504,4.834,10.371
		c0.908,3.867,1.362,9.404,1.362,16.611V155.372z"/>
	<path class="st1" d="M847.441,107.384c0-8.203,2.021-16.142,6.064-23.818c4.043-7.675,9.77-13.535,17.183-17.578
		c7.412-4.043,15.688-6.064,24.829-6.064c14.12,0,25.693,4.585,34.717,13.755c9.022,9.171,13.535,20.757,13.535,34.761
		c0,14.122-4.557,25.826-13.667,35.112c-9.111,9.288-20.581,13.931-34.409,13.931c-8.556,0-16.714-1.934-24.478-5.801
		c-7.765-3.867-13.667-9.536-17.71-17.007S847.441,118.106,847.441,107.384z M872.754,108.702c0,9.259,2.197,16.348,6.592,21.27
		s9.813,7.383,16.26,7.383c6.445,0,11.851-2.461,16.216-7.383c4.364-4.922,6.548-12.069,6.548-21.445
		c0-9.141-2.184-16.172-6.548-21.094c-4.365-4.922-9.771-7.383-16.216-7.383c-6.446,0-11.865,2.461-16.26,7.383
		S872.754,99.445,872.754,108.702z"/>
</g>
<g>
</g>
<g>
</g>
<g>
</g>
<g>
</g>
<g>
</g>
<g>
</g>
</svg>
